<svg viewBox="0 0 512 512" xmlns="http://www.w3.org/2000/svg"><g id="GLYPH"><path d="m496.52 129.86c-13.44-49.48-64.89-100.94-114.37-114.37-30.34-7.57-70.98-15.36-126.15-15.49-55.17.14-95.81 7.92-126.15 15.49-49.47 13.44-100.93 64.89-114.37 114.37-7.56 30.33-15.35 70.98-15.48 126.14.13 55.17 7.92 95.82 15.48 126.15 13.44 49.48 64.9 100.93 114.37 114.37 30.34 7.57 71 15.35 126.15 15.49 55.16-.14 95.81-7.92 126.15-15.49 49.48-13.44 100.93-64.89 114.37-114.37 7.56-30.33 15.35-71 15.48-126.15-.13-55.16-7.92-95.81-15.48-126.14zm-118 180.5-110.92 110.92a16.39 16.39 0 0 1 -23.19 0l-110.9-110.92a16 16 0 0 1 22.56-22.56l84 84v-269.94a15.95 15.95 0 0 1 31.9 0v269.91l84-84a16 16 0 0 1 22.56 22.56z" fill="rgba(0, 0, 0, .75)"/></g></svg>