<svg width="570" height="23" viewBox="0 0 570 23" fill="none" xmlns="http://www.w3.org/2000/svg">
<path d="M2 10C1.17157 10 0.5 10.6716 0.5 11.5C0.5 12.3284 1.17157 13 2 13V10ZM569.062 12.5607C569.647 11.9749 569.647 11.0251 569.062 10.4393L559.516 0.893398C558.93 0.307611 557.98 0.307611 557.394 0.893398C556.808 1.47919 556.808 2.42893 557.394 3.01472L565.88 11.5L557.394 19.9853C556.808 20.5711 556.808 21.5208 557.394 22.1066C557.98 22.6924 558.93 22.6924 559.516 22.1066L569.062 12.5607ZM2 13H568.001V10H2V13Z" fill="#DD3826"/>
</svg>
