<svg id="Layer_1" enable-background="new 0 0 64 64" height="24" viewBox="0 0 64 64" width="24" xmlns="http://www.w3.org/2000/svg">
  <g>
    <g>
      <path d="m56.3 18.6-55-17.3 17.2 54.9c1.2 4 5.6 5.9 9.7 4.3 1.1-.5 2.1-1.1 3-2 1.8-1.8 6.7-8.2 7.8-12l14.7 14.7c1.9 1.9 5.2 1.8 7.3-.3s2.3-5.4.3-7.3l-14.6-14.5c4.7-1 12.4-7.4 13.8-10.9 1.6-4.1-.3-8.4-4.2-9.6z" fill="#ff728b" stroke="black" stroke-width="3"/>
    </g>
    <g>
      <path d="m39 46.6 14.7 14.7c1.9 1.9 5.2 1.8 7.3-.3s2.3-5.4.3-7.3l-14.6-14.6c4.7-1 12.4-7.4 13.8-10.9 1.6-4.1-.3-8.4-4.3-9.7l-54.9-17.2" fill="#ff3f62" stroke="black" stroke-width="3"/>
    </g>
    <g>
      <path d="m53.7 61.3c1.9 1.9 5.2 1.8 7.3-.3s2.3-5.4.3-7.3l-14.6-14.6" fill="#ff728b" stroke="black" stroke-width="3"/>
    </g>
    <g>
      <path d="" fill="#d6217b" stroke="black" stroke-width="3"/>
    </g>
  </g>
</svg>
