<svg width="65" height="65" viewBox="0 0 65 65" fill="none" xmlns="http://www.w3.org/2000/svg">
<path d="M32.5285 33.1236C38.1572 39.1344 39.109 48.7142 35.3132 56.1194C33.9141 58.9603 31.7947 61.5928 29.2429 63.6977C26.9713 65.646 23.5563 65.3776 21.6149 63.0979C19.6735 60.8183 19.9409 57.3912 22.2126 55.4429C22.7519 54.9803 23.3739 54.6376 24.0076 54.4224C25.7238 53.8451 27.3846 52.8983 28.8421 51.5757C30.2991 50.257 31.5456 48.5669 32.4273 46.6122C34.3153 42.4643 34.3279 37.4785 32.5285 33.1236Z" fill="#ECB530"/>
<path d="M32.3747 33.1915C33.8721 41.3018 29.5112 49.8773 22.3287 54.0476C19.6208 55.6782 16.4198 56.7431 13.1395 57.1296C10.1793 57.5362 7.45047 55.4576 7.04585 52.4864C6.64074 49.5156 8.71196 46.7777 11.6727 46.3707C12.3759 46.274 13.0836 46.3238 13.7328 46.4863C15.4875 46.9319 17.3949 47.0364 19.3339 46.7143C21.27 46.3956 23.2294 45.6498 25.0239 44.4844C28.8455 42.0183 31.5421 37.8309 32.3747 33.1915Z" fill="#ECB530"/>
<path d="M32.2085 33.1646C29.0984 40.7996 20.8104 45.6479 12.5215 45.2599C9.36523 45.1627 6.09854 44.3213 3.13049 42.867C0.421164 41.6029 -0.754275 38.3735 0.505798 35.6546C1.76538 32.9357 4.98344 31.7561 7.69277 33.0202C8.33667 33.3203 8.90508 33.7464 9.36369 34.2349C10.5999 35.5619 12.1484 36.6844 13.9527 37.4653C15.7531 38.2476 17.8029 38.6834 19.9408 38.6761C24.4841 38.6756 29.0084 36.6161 32.2085 33.1646Z" fill="#ECB530"/>
<path d="M32.083 33.0519C25.3532 37.7879 15.7692 37.3696 9.00491 32.5458C6.40209 30.7512 4.10711 28.2715 2.39426 25.4374C0.795707 22.904 1.54658 19.5496 4.07159 17.9459C6.59611 16.3417 9.93857 17.0952 11.5366 19.6292C11.9165 20.2309 12.1655 20.8976 12.2876 21.5574C12.613 23.3442 13.3103 25.129 14.4075 26.7649C15.5007 28.3998 16.9904 29.8786 18.7927 31.0324C22.6157 33.497 27.5315 34.2193 32.083 33.0519Z" fill="#ECB530"/>
<path d="M32.0382 32.8889C23.8256 33.2218 15.988 27.6698 12.8964 19.9421C11.6738 17.0206 11.079 13.6892 11.1646 10.3754C11.185 7.37684 13.6234 4.96248 16.6114 4.98298C19.5994 5.00348 22.0053 7.45054 21.9849 10.4491C21.98 11.1616 21.8301 11.8571 21.5777 12.4789C20.8886 14.1587 20.5142 16.0382 20.5561 18.0099C20.595 19.9782 21.0516 22.0304 21.9459 23.9792C23.8339 28.1271 27.58 31.4019 32.0382 32.8889Z" fill="#ECB530"/>
<path d="M32.0884 32.7278C25.0002 28.5521 21.3979 19.6292 22.9605 11.451C23.5057 8.32945 24.8003 5.2045 26.6576 2.46363C28.2902 -0.0478506 31.6424 -0.755512 34.1451 0.882369C36.6477 2.52074 37.3529 5.88483 35.7208 8.39632C35.3332 8.99271 34.8323 9.49734 34.2847 9.8829C32.7999 10.9219 31.4723 12.3002 30.4451 13.9815C29.4175 15.6584 28.6958 17.6326 28.3987 19.7575C27.7519 24.271 29.1393 29.0582 32.0884 32.7278Z" fill="#ECB530"/>
<path d="M32.2172 32.619C28.5036 25.2603 30.2802 15.7995 36.0008 9.76725C38.1412 7.43732 40.9136 5.51052 43.9527 4.21232C46.679 2.98537 49.8806 4.20841 51.1032 6.94439C52.3258 9.68037 51.107 12.8932 48.3807 14.1201C47.7329 14.4115 47.0399 14.5642 46.3717 14.5916C44.5631 14.6604 42.7033 15.0991 40.9336 15.9562C39.1653 16.8093 37.4948 18.0787 36.1005 19.7048C33.1251 23.1519 31.7134 27.9323 32.2172 32.619Z" fill="#ECB530"/>
<path d="M32.3845 32.598C33.2249 24.393 39.816 17.3978 47.8783 15.4266C50.9339 14.6277 54.3046 14.511 57.5606 15.0679C60.515 15.515 62.5493 18.2807 62.1044 21.2461C61.6589 24.2109 58.9029 26.2524 55.948 25.8059C55.2462 25.7 54.5809 25.452 54.0036 25.1124C52.4449 24.189 50.6441 23.5492 48.6939 23.31C46.7467 23.0684 44.6574 23.23 42.6085 23.841C38.2486 25.126 34.4855 28.3813 32.3845 32.598Z" fill="#ECB530"/>
<path d="M32.5362 32.6707C37.6635 26.2241 46.9772 23.9157 54.8216 26.6316C57.8227 27.6175 60.7208 29.3481 63.1602 31.5829C65.4051 33.5619 65.6263 36.9924 63.6542 39.2452C61.6822 41.498 58.2638 41.7201 56.0189 39.741C55.4854 39.271 55.0594 38.7015 54.7569 38.1032C53.9433 36.4804 52.7727 34.9655 51.2607 33.7064C49.7526 32.4467 47.9085 31.4491 45.8552 30.8513C41.4948 29.5667 36.5751 30.2632 32.5362 32.6707Z" fill="#ECB530"/>
<path d="M32.6247 32.8142C40.4113 30.1729 49.49 33.2837 54.6256 39.825C56.6191 42.2828 58.1252 45.3106 58.9729 48.5142C59.7953 51.3971 58.133 54.4029 55.2603 55.2282C52.3875 56.0535 49.3923 54.3854 48.5699 51.5025C48.3744 50.8177 48.3228 50.1076 48.3909 49.44C48.5806 47.6332 48.4118 45.724 47.8185 43.8441C47.2286 41.9661 46.2141 40.1261 44.8091 38.5097C41.8338 35.0636 37.3197 32.9806 32.6247 32.8142Z" fill="#ECB530"/>
<path d="M32.6223 32.9831C40.5956 34.9855 46.557 42.5283 47.3536 50.8172C47.7067 53.9661 47.342 57.3307 46.3299 60.4859C45.4687 63.3571 42.4509 64.9842 39.5894 64.1199C36.7283 63.2556 35.1069 60.2272 35.9682 57.3561C36.1729 56.6738 36.5115 56.0486 36.9287 55.5235C38.0614 54.1067 38.9484 52.4087 39.462 50.5054C39.9775 48.6054 40.1156 46.5073 39.8043 44.3848C39.157 39.8713 36.4818 35.6702 32.6223 32.9831Z" fill="#ECB530"/>
</svg>
